<svg width="840" height="6184" viewBox="0 0 840 6184" fill="none" xmlns="http://www.w3.org/2000/svg">
<path d="M76.5481 6183.73C-33.1429 5814.88 213.588 5750.14 213.447 5491.09C213.307 5232.04 -11.2811 5034.44 1.03393 4699.08C13.3489 4363.73 307.436 4432.74 206.828 4167.96C106.22 3903.17 252.499 3563.17 346.363 3506.25C440.228 3449.34 498.551 2736.37 138.933 2212.73C-220.685 1689.08 278.701 1557.72 223.554 929.598C168.406 301.48 204.651 25.2362 295.982 15.3577C369.047 7.45502 609.268 2.24331 720.245 0.625295C665.544 105.365 570.315 434.992 627.006 915.589C697.871 1516.33 299.084 1657.19 525.998 2199.28C752.912 2741.37 949.736 3136.96 768.558 3551.95C587.38 3966.95 638.033 4113.16 717.82 4250.82C797.606 4388.47 527.216 4514.4 549.636 4680.03C572.056 4845.67 846.52 5204.6 767.571 5683.54C704.411 6066.69 280.572 6176.64 76.5481 6183.73Z" fill="#41EAD4"/>
</svg>
