<svg width="892" height="7060" viewBox="0 0 892 7060" fill="none" xmlns="http://www.w3.org/2000/svg">
<path d="M25.7877 0C-71.0368 426.844 177.792 491.182 186.641 787.909C195.491 1084.63 -22.1038 1319.9 1.84199 1703.53C25.7877 2087.17 317.303 1996.42 225.944 2303.71C134.585 2611 292.576 2994.63 388.36 3056.09C484.143 3117.54 567.173 3931.86 225.944 4545.96C-115.284 5160.06 388.36 5290.65 355.044 6012.3C321.728 6733.95 367.537 7048.92 459.156 7056.61C532.451 7062.75 772.708 7059.17 883.674 7056.61C825.371 6938.81 718.76 6565.04 758.74 6012.3C808.714 5321.38 405.278 5175.9 613.242 4545.96C821.207 3916.02 1004.18 3455.08 808.714 2986.95C613.242 2518.81 658.792 2349.32 733.753 2188.47C808.714 2027.63 534.117 1894.15 550.775 1703.53C567.433 1512.92 829.276 1090.88 733.753 545.438C657.334 109.088 229.935 0 25.7877 0Z" fill="#41EAD4"/>
</svg>
